<svg width="0" height="0" class="hidden">
  <symbol viewBox="0 -101 713.752 713" xmlns="http://www.w3.org/2000/svg" id="airplane">
    <path d="M85.086 304.406c-6.145 2.883-8.856 10.14-6.117 16.344L107.035 381a12.5 12.5 0 0 0 6.988 6.488 12.44 12.44 0 0 0 4.239.746 12.419 12.419 0 0 0 5.238-1.117l212.055-99.047-19.207 200.825a12.478 12.478 0 0 0 4.109 10.48 54.445 54.445 0 0 0 32.938 12.473 40.103 40.103 0 0 0 9.851-1.243c17.215-4.492 30.563-19.832 39.668-46.03l83.45-247.102 165.273-77.094c48.648-22.7 73.718-68.727 56.883-104.652a63.149 63.149 0 0 0-48.774-34.055 115.623 115.623 0 0 0-68.105 10.484L400.914 101.59 195.852 21.383c-25.825-9.727-46.278-9.477-60.622.879a50.87 50.87 0 0 0-18.59 40.285 12.483 12.483 0 0 0 5.364 9.86l138.082 94.921-79.078 37.422-132.602-33.684a12.48 12.48 0 0 0-13.844 5.989L1.512 236.55a12.441 12.441 0 0 0-.739 10.262A12.447 12.447 0 0 0 8 254.14l98.168 40.543zm57.121-248.094a21.342 21.342 0 0 1 7.488-13.472c7.114-5.117 20.086-4.367 37.422 2.117l182.617 71.227-83.328 38.918zM29.949 236.43l21.703-38.543 127.606 31.68c2.75.695 5.652.433 8.238-.743l414.75-193.719a91.172 91.172 0 0 1 53.262-8.484 39.067 39.067 0 0 1 30.437 19.707c10.47 22.457-10.11 55.262-44.914 71.477l-143.695 67.363 8.734-25.828c2.207-6.645-1.398-13.824-8.043-16.028-6.652-2.203-13.828 1.403-16.03 8.047L379.335 456.836c-6.113 17.344-13.723 27.7-22.203 29.937a21.11 21.11 0 0 1-15.219-2.863l24.95-261.953c.652-6.887-4.4-13-11.294-13.652-6.886-.66-13 4.398-13.656 11.285l-3.863 40.039-214.055 99.789-17.578-37.422 35.168-16.46a12.474 12.474 0 0 0 7.445-11.415c0-4.945-2.918-9.422-7.445-11.414zm0 0"></path>
  </symbol>
  <symbol xmlns="http://www.w3.org/2000/svg" viewBox="0 0 406.834 406.834" id="checked">
    <path d="M385.621 62.507L146.225 301.901 21.213 176.891 0 198.104l146.225 146.223L406.834 83.72z"></path>
  </symbol>
  <symbol xmlns="http://www.w3.org/2000/svg" viewBox="0 0 224.512 224.512" id="cross-out">
    <path fill="#010002" d="M224.507 6.997L217.521 0 112.256 105.258 6.998 0 .005 6.997l105.258 105.257L.005 217.512l6.993 7L112.256 119.24l105.265 105.272 6.986-7-105.258-105.258z"></path>
  </symbol>
  <symbol viewBox="0 1 512 511" xmlns="http://www.w3.org/2000/svg" id="exchange">
    <path d="M506.813 111.23L307.405 1.734a10.005 10.005 0 0 0-9.625 0l-75.16 41.27a10.029 10.029 0 0 0-4.293 2.36L98.378 111.23a9.994 9.994 0 0 0-5.187 8.766v132.43c-20.234 6.328-38.777 17.488-54.195 32.91C-1.19 325.52-11.438 386.809 13.5 437.844c2.422 4.96 8.41 7.02 13.371 4.594 4.965-2.426 7.02-8.415 4.598-13.375-21.188-43.364-12.48-95.438 21.668-129.586 21.355-21.356 49.746-33.118 79.945-33.118s58.59 11.762 79.945 33.118c21.352 21.351 33.114 49.742 33.114 79.941s-11.762 58.59-33.118 79.945c-34.148 34.149-86.222 42.856-129.585 21.668-4.961-2.426-10.95-.367-13.372 4.594-2.425 4.965-.37 10.953 4.594 13.375a132.667 132.667 0 0 0 58.336 13.5c34.543-.004 68.625-13.45 94.172-38.996 11.715-11.715 20.973-25.23 27.523-39.922l43.09 23.66a9.987 9.987 0 0 0 9.625 0L506.812 347.75a10.003 10.003 0 0 0 5.188-8.766v-69.496c0-5.523-4.477-10-10-10s-10 4.477-10 10v63.578l-179.375 98.497V235.39l59.2-32.508v51.531a9.996 9.996 0 0 0 10 10 9.99 9.99 0 0 0 4.82-1.238l42.73-23.52a9.992 9.992 0 0 0 5.176-8.758v-62.46L492 136.895v52.597c0 5.524 4.477 10 10 10s10-4.476 10-10v-69.496a9.998 9.998 0 0 0-5.188-8.766zm-204.22-89.324l178.63 98.09-56.348 30.942-178.629-98.09zm0 196.176l-178.628-98.086 58.414-32.078 178.633 98.086zm79.192-43.484L203.156 76.512l22.313-12.254 178.633 98.086zM227.168 285.336c-25.133-25.133-58.547-38.973-94.086-38.973-6.723 0-13.363.496-19.89 1.469V136.895l179.437 98.53v196.173l-31.145-17.102c3.067-11.289 4.653-23.062 4.653-35.078 0-35.54-13.84-68.953-38.969-94.082zm187.387-60.348l-22.73 12.512v-45.598l22.73-12.48zm0 0"></path>
    <path d="M502 219.441a10.08 10.08 0 0 0-7.07 2.93 10.073 10.073 0 0 0-2.93 7.07 10.07 10.07 0 0 0 2.93 7.067c1.86 1.863 4.441 2.93 7.07 2.93s5.21-1.067 7.07-2.93a10.07 10.07 0 0 0 2.93-7.067c0-2.632-1.07-5.21-2.93-7.07a10.08 10.08 0 0 0-7.07-2.93zM99.457 389.418a9.973 9.973 0 0 0 7.07-2.926c3.907-3.906 3.907-10.238 0-14.144l-6.925-6.93h59.101c14.336 0 26 11.664 26 26s-11.664 26-26 26h-35.02c-5.523 0-10 4.477-10 10 0 5.52 4.477 9.996 10 9.996h35.02c25.363 0 46-20.633 46-45.996s-20.637-45.996-46-45.996H99.602l6.925-6.93c3.907-3.906 3.907-10.238 0-14.144-3.902-3.903-10.234-3.903-14.14 0l-24 24c-3.903 3.906-3.903 10.238 0 14.144l24 23.996a9.968 9.968 0 0 0 7.07 2.93zM46.074 476.45a9.953 9.953 0 0 1-7.64-3.56l-.02-.023c-3.555-4.226-3.008-10.531 1.219-14.086 4.226-3.558 10.535-3.011 14.09 1.215 3.55 4.23 3.015 10.547-1.211 14.102a9.979 9.979 0 0 1-6.438 2.351zm0 0"></path>
  </symbol>
  <symbol xmlns="http://www.w3.org/2000/svg" viewBox="0 0 512 512" id="facebook">
    <path d="M288 176v-64c0-17.664 14.336-32 32-32h32V0h-64c-53.024 0-96 42.976-96 96v80h-64v80h64v256h96V256h64l32-80h-96z"></path>
  </symbol>
  <symbol xmlns="http://www.w3.org/2000/svg" viewBox="0 0 512.002 512.002" id="form-email">
    <path d="M508.033 154.025L456 114.683V10c0-5.523-4.478-10-10-10H186.002c-5.523 0-10 4.477-10 10s4.477 10 10 10H436v239.37l-92.705 70.096-13.741-10.39c-6.033-4.562-13.902-7.075-22.158-7.075h-102.79c-8.256 0-16.126 2.513-22.158 7.074l-13.741 10.39-92.706-70.096V20h30.001c5.523 0 10-4.477 10-10s-4.477-10-10-10H66.001c-5.523 0-10 4.477-10 10v104.682L3.969 154.024A10.004 10.004 0 0 0 0 162.001v320.001c0 16.542 13.458 30 30 30h452.002c16.541 0 29.999-13.458 29.999-30V162.001a9.999 9.999 0 0 0-3.968-7.976zM456 139.757l36.001 27.221v50.05L456 244.247v-104.49zM492.001 242.1v199.803l-132.125-99.901L492.001 242.1zM20 242.1l132.125 99.901L20 441.903V242.1zm36.001-102.344v104.491l-36-27.22v-50.05l36-27.221zm426.001 352.246H30c-5.514 0-10-4.486-10-10v-15.026l174.51-131.949c2.543-1.924 6.223-3.027 10.095-3.027h102.79c3.872 0 7.552 1.104 10.096 3.027l174.51 131.948v15.026c0 5.515-4.485 10.001-9.999 10.001z"></path>
    <path d="M146.006 20c5.523 0 10-4.477 10-10s-4.477-10-10-10h-.007c-5.523 0-9.996 4.477-9.996 10s4.48 10 10.003 10zm60.002 432h-.007c-5.523 0-9.997 4.477-9.997 10s4.481 10 10.004 10 10-4.477 10-10-4.477-10-10-10zm99.993 0h-59.997c-5.523 0-10 4.477-10 10s4.477 10 10 10h59.997c5.522 0 10-4.477 10-10s-4.477-10-10-10zm0-326c0-5.523-4.478-10-10-10s-10 4.477-10 10v.027c-8.363-6.292-18.753-10.027-30-10.027-27.57 0-50 22.43-50 50s22.43 50 50 50c14.822 0 28.152-6.489 37.316-16.768 7.838 10.938 20.826 17.175 33.198 17.175 10.932 0 20.85-4.591 27.926-12.929C362.112 194.443 366 181.833 366 166c0-60.654-49.346-110-110-110s-110 49.346-110 110 49.346 110 110 110c29.381 0 57.004-11.442 77.783-32.218 3.905-3.905 3.905-10.237 0-14.142-3.904-3.905-10.234-3.906-14.143 0-17 16.999-39.601 26.36-63.64 26.36-49.626 0-90-40.374-90-90s40.374-90 90-90c49.625 0 90 40.374 90 90 0 10.806-2.354 19.29-6.807 24.536-4.119 4.853-9.169 5.872-12.679 5.872-9.865 0-20.514-7.802-20.514-20.407V126zm-50 70c-16.542 0-30-13.458-30-30s13.458-30 30-30 30 13.458 30 30-13.458 30-30 30z"></path>
  </symbol>
  <symbol xmlns="http://www.w3.org/2000/svg" viewBox="0 0 512 512" id="form-eye">
    <path d="M509.059 248.901c-1.158-1.159-28.873-28.68-73.858-56.51C393.485 166.584 328.529 135.82 256 135.82s-137.484 30.764-179.202 56.572c-44.986 27.83-72.7 55.351-73.857 56.51-3.92 3.92-3.92 10.276 0 14.196 1.158 1.158 28.873 28.68 73.857 56.51C118.516 345.416 183.47 376.179 256 376.179c72.529 0 137.484-30.764 179.202-56.572 44.986-27.83 72.7-55.351 73.858-56.51 3.92-3.92 3.92-10.276-.001-14.196zm-84.856 53.901C384.798 327.117 323.629 356.101 256 356.101s-128.798-28.984-168.203-53.299C57.982 284.405 35.752 265.814 24.779 256c10.976-9.815 33.207-28.406 63.018-46.802 39.405-24.315 100.574-53.299 168.203-53.299s128.798 28.984 168.203 53.299c29.811 18.396 52.043 36.987 63.018 46.802-10.976 9.815-33.207 28.406-63.018 46.802z"></path>
    <path d="M256 171.128c-46.798 0-84.872 38.073-84.872 84.872s38.074 84.872 84.872 84.872 84.872-38.073 84.872-84.872c-.001-46.799-38.074-84.872-84.872-84.872zm0 149.665c-35.728 0-64.793-29.067-64.793-64.793 0-14.249 4.634-27.43 12.46-38.139l18.093 18.093A39.435 39.435 0 0 0 216.306 256c0 21.888 17.807 39.695 39.695 39.695s39.695-17.808 39.695-39.695-17.808-39.695-39.696-39.695a39.439 39.439 0 0 0-20.042 5.452l-18.093-18.094c10.708-7.824 23.887-12.457 38.135-12.457 35.728 0 64.793 29.067 64.793 64.793S291.727 320.793 256 320.793zM236.383 256c0-10.816 8.8-19.617 19.617-19.617 10.816 0 19.617 8.8 19.617 19.617s-8.8 19.617-19.617 19.617c-10.817-.001-19.617-8.801-19.617-19.617zm217.487-7.967a460.16 460.16 0 0 0-20.5-14.831 441.232 441.232 0 0 0-27.353-17.245c-4.799-2.782-10.94-1.145-13.721 3.65-2.78 4.798-1.146 10.941 3.651 13.721a422.436 422.436 0 0 1 26.108 16.46 440.042 440.042 0 0 1 19.6 14.18 9.998 9.998 0 0 0 6.101 2.072c3.016 0 5.998-1.353 7.974-3.932 3.373-4.401 2.54-10.702-1.86-14.075zm-78.236-46.929c-12.919 0-12.942 20.078 0 20.078 12.92.001 12.941-20.078 0-20.078z"></path>
  </symbol>
  <symbol viewBox="0 -50 512.001 512" xmlns="http://www.w3.org/2000/svg" id="form-fullname">
    <path d="M411.45 317.121a19.76 19.76 0 0 1-9.208-2.281 19.734 19.734 0 0 1-10.59-17.52v-17.558h-82.629c-5.52 0-10-4.477-10-10v-56.254c0-5.524 4.48-10 10-10h82.63v-17.555a19.74 19.74 0 0 1 10.59-17.523 19.734 19.734 0 0 1 20.437 1.226l80.765 55.684a19.795 19.795 0 0 1 0 32.59l-80.765 55.683a19.753 19.753 0 0 1-11.23 3.508zm-92.427-57.36h82.63c5.523 0 10 4.477 10 10v27.16l80.187-55.288-80.188-55.285v27.16c0 5.523-4.48 10-10 10h-82.629zm173.067-17.956c.004.004.008.004.008.008l5.668-8.239zm-230.973 20.511c5.524 0 10-4.476 10-10V221.45c0-23.039-18.742-41.781-41.777-41.781h-33.9c24.246-18.23 39.957-47.23 39.957-79.832C235.398 44.786 190.61 0 135.558 0c-55.05 0-99.84 44.785-99.84 99.836 0 32.601 15.712 61.601 39.958 79.832H41.777C18.742 179.672 0 198.41 0 221.449v139.184c0 3.144 1.48 6.11 3.996 7.996 38.176 28.668 83.668 43.82 131.563 43.82 47.894 0 93.386-15.152 131.562-43.82a9.998 9.998 0 0 0 3.996-7.996v-18.387c0-5.523-4.476-10-10-10-5.523 0-10 4.477-10 10v13.313c-33.844 24.148-73.691 36.89-115.558 36.89-41.868 0-81.715-12.742-115.559-36.89v-134.11c0-12.008 9.77-21.777 21.777-21.777h187.559c12.012 0 21.781 9.77 21.781 21.777v30.867c0 5.524 4.477 10 10 10zM55.72 99.836C55.719 55.812 91.535 20 135.559 20c44.023 0 79.84 35.812 79.84 79.836 0 44.02-35.817 79.832-79.84 79.832-44.024 0-79.84-35.813-79.84-79.832zm0 0"></path>
    <path d="M261.121 307.266c-4.18 0-8.008-2.711-9.418-6.637-1.383-3.852-.207-8.36 2.945-10.992 3.305-2.762 8.075-3.14 11.747-.867 3.496 2.16 5.335 6.417 4.527 10.445-.93 4.61-5.086 8.05-9.8 8.05zm0 0"></path>
  </symbol>
  <symbol xmlns="http://www.w3.org/2000/svg" viewBox="-66 0 512 512" id="form-password">
    <path d="M340 197.008V150C340 67.29 272.71 0 190 0S40 67.29 40 150v47.008C17.203 201.652 0 221.855 0 246v56.77c0 5.523 4.477 10 10 10s10-4.477 10-10V246c0-16.543 13.457-30 30-30h280c16.543 0 30 13.457 30 30v216c0 13.035-8.36 24.152-20 28.281V430c0-5.523-4.477-10-10-10s-10 4.477-10 10v62H50c-16.543 0-30-13.457-30-30v-79c0-5.523-4.477-10-10-10s-10 4.477-10 10v79c0 27.57 22.43 50 50 50h280c27.57 0 50-22.43 50-50V246c0-24.145-17.203-44.348-40-48.992zM114 196v-46c0-41.906 34.094-76 76-76s76 34.094 76 76v46zm172 0v-46c0-52.934-43.066-96-96-96s-96 43.066-96 96v46H60v-46c0-71.684 58.316-130 130-130s130 58.316 130 130v46zm0 0"></path>
    <path d="M10 352.488a10.06 10.06 0 0 0 7.07-2.93 10.073 10.073 0 0 0 2.93-7.07c0-2.629-1.07-5.21-2.93-7.066a10.067 10.067 0 0 0-7.07-2.934c-2.629 0-5.21 1.07-7.07 2.934A10.064 10.064 0 0 0 0 342.488c0 2.633 1.07 5.211 2.93 7.07a10.063 10.063 0 0 0 7.07 2.93zM190 458c16.543 0 30-13.457 30-30v-53.102c15.023-9.945 24.129-26.664 24.129-44.984 0-29.773-24.227-54-54-54-29.777 0-54 24.227-54 54 0 18.188 9.004 34.844 23.871 44.813V428c0 16.543 13.457 30 30 30zm-33.871-128.086c0-18.75 15.25-34 34-34 18.746 0 34 15.25 34 34 0 12.875-7.149 24.496-18.652 30.336a9.996 9.996 0 0 0-5.477 8.918V428c0 5.516-4.484 10-10 10s-10-4.484-10-10v-58.965a9.997 9.997 0 0 0-5.418-8.887c-11.383-5.867-18.453-17.453-18.453-30.234zM330 399c2.64 0 5.21-1.07 7.07-2.93 1.86-1.86 2.93-4.43 2.93-7.07 0-2.64-1.07-5.21-2.93-7.07A10.059 10.059 0 0 0 330 379a10.08 10.08 0 0 0-7.07 2.93A10.08 10.08 0 0 0 320 389c0 2.629 1.07 5.21 2.93 7.07A10.08 10.08 0 0 0 330 399zm0 0"></path>
  </symbol>
  <symbol xmlns="http://www.w3.org/2000/svg" viewBox="0 0 512 512" id="free-delivery">
    <path d="M476.158 286.938l-13.259-53.035c3.625-.77 6.345-3.986 6.345-7.839v-8.551c0-18.566-15.105-33.67-33.67-33.67h-60.392v-17.637c0-9.136-7.432-16.568-16.568-16.568H246.32l68.24-27.296a8.017 8.017 0 0 0-5.955-14.887l-55.874 22.349c17.026-10.924 33.871-22.947 40.284-31.355 12.485-16.369 9.323-39.843-7.046-52.328-16.369-12.486-39.843-9.323-52.328 7.046-9.122 11.962-21.158 45.573-28.948 69.258-7.79-23.683-19.826-57.296-28.948-69.258-12.484-16.369-35.959-19.53-52.328-7.046-16.369 12.484-19.53 35.958-7.046 52.328 6.413 8.409 23.257 20.431 40.284 31.355l-55.874-22.349a8.014 8.014 0 0 0-10.421 4.466 8.016 8.016 0 0 0 4.466 10.421l68.24 27.296H50.772c-9.136 0-16.568 7.432-16.568 16.568v145.37a8.017 8.017 0 0 0 16.034 0v-145.37c0-.295.239-.534.534-.534h307.841c.295 0 .534.239.534.534v145.372a8.017 8.017 0 0 0 16.034 0v-9.088h94.566l.025.002.026-.001c11.636.009 21.516 7.647 24.908 18.171h-24.928a8.017 8.017 0 0 0-8.017 8.017v17.102c0 13.851 11.268 25.119 25.119 25.119h9.086v35.273h-20.962c-6.886-19.882-25.787-34.205-47.982-34.205s-41.097 14.322-47.982 34.205h-3.86V345.78a8.017 8.017 0 0 0-16.034 0v60.392H192.817c-6.886-19.882-25.787-34.205-47.982-34.205s-41.097 14.322-47.982 34.205H50.772a.534.534 0 0 1-.534-.534v-17.637h34.739a8.017 8.017 0 0 0 0-16.034H8.017a8.017 8.017 0 0 0 0 16.034h26.188v17.637c0 9.136 7.432 16.568 16.568 16.568h43.304c-.002.178-.014.355-.014.534 0 27.995 22.777 50.772 50.772 50.772s50.772-22.777 50.772-50.772c0-.18-.012-.356-.014-.534h180.67c-.002.178-.014.355-.014.534 0 27.995 22.777 50.772 50.772 50.772 27.995 0 50.772-22.777 50.772-50.772 0-.18-.012-.356-.014-.534h26.203a8.017 8.017 0 0 0 8.017-8.017v-85.511c.001-21.114-15.576-38.656-35.841-41.74zM172.9 121.059c-31.623-19.651-41.003-28.692-43.78-32.334-7.123-9.339-5.319-22.732 4.021-29.855a21.193 21.193 0 0 1 12.893-4.355c6.422 0 12.776 2.886 16.963 8.376 7.755 10.168 19.9 44.391 27.918 69.052a882.38 882.38 0 0 1-18.015-10.884zm45.573 10.883c8.018-24.66 20.163-58.882 27.917-69.052 7.123-9.339 20.516-11.142 29.855-4.02 9.34 7.123 11.143 20.516 4.021 29.855-2.777 3.641-12.157 12.683-43.778 32.333a881.445 881.445 0 0 1-18.015 10.884zm156.709 67.933h60.392c9.725 0 17.637 7.912 17.637 17.637v.534h-78.029v-18.171zm0 86.581V234.08h71.235l13.094 52.376h-84.329zM144.835 457.479c-19.155 0-34.739-15.584-34.739-34.739s15.584-34.739 34.739-34.739c19.155 0 34.739 15.584 34.739 34.739s-15.584 34.739-34.739 34.739zm282.188 0c-19.155 0-34.739-15.584-34.739-34.739s15.584-34.739 34.739-34.739c19.155 0 34.739 15.584 34.739 34.739s-15.584 34.739-34.739 34.739zm68.944-102.614h-9.086c-5.01 0-9.086-4.076-9.086-9.086v-9.086h18.171v18.172z"></path>
    <path d="M144.835 406.172c-9.136 0-16.568 7.432-16.568 16.568s7.432 16.568 16.568 16.568c9.136 0 16.568-7.432 16.568-16.568s-7.432-16.568-16.568-16.568zm282.188 0c-9.136 0-16.568 7.432-16.568 16.568s7.432 16.568 16.568 16.568c9.136 0 16.568-7.432 16.568-16.568s-7.432-16.568-16.568-16.568zm-94.063-34.205H213.244a8.017 8.017 0 0 0 0 16.034H332.96a8.017 8.017 0 0 0 0-16.034zm-205.227-34.204H25.119a8.017 8.017 0 0 0 0 16.034h102.614a8.017 8.017 0 0 0 0-16.034zm0-119.717H93.528a8.017 8.017 0 0 0-8.017 8.017v68.409a8.017 8.017 0 0 0 16.034 0v-26.188h17.637a8.017 8.017 0 0 0 0-16.034h-17.637v-18.17h26.188a8.017 8.017 0 0 0 0-16.034zm63.089 53.997c8.023-5.255 13.337-14.317 13.337-24.602 0-16.209-13.186-29.395-29.395-29.395h-21.378a8.017 8.017 0 0 0-8.017 8.017v68.409a8.017 8.017 0 0 0 16.034 0v-17.637h13.346l14.722 22.083a8.008 8.008 0 0 0 6.677 3.571 7.968 7.968 0 0 0 4.439-1.348 8.013 8.013 0 0 0 2.223-11.116l-11.988-17.982zm-16.058-11.241h-13.361V234.08h13.361c7.368 0 13.361 5.993 13.361 13.361s-5.993 13.361-13.361 13.361zM256 286.456h-26.188v-18.198c.177.012.354.027.534.027h17.102a8.017 8.017 0 0 0 0-16.034h-17.102c-.181 0-.357.015-.534.027V234.08H256a8.017 8.017 0 0 0 0-16.034h-34.205a8.017 8.017 0 0 0-8.017 8.017v68.409a8.017 8.017 0 0 0 8.017 8.017H256a8.017 8.017 0 0 0 0-16.033zm59.858 0H289.67v-18.171h9.086a8.017 8.017 0 0 0 0-16.034h-9.086V234.08h26.188a8.017 8.017 0 0 0 0-16.034h-34.205a8.017 8.017 0 0 0-8.017 8.017v68.409a8.017 8.017 0 0 0 8.017 8.017h34.205a8.017 8.017 0 0 0 0-16.033z"></path>
  </symbol>
  <symbol xmlns="http://www.w3.org/2000/svg" viewBox="0 0 57 57" id="gift">
    <path d="M57 12.002H41.741A6.957 6.957 0 0 0 43 7.995a6.951 6.951 0 0 0-2.043-4.95 7.008 7.008 0 0 0-9.899 0l-2.829 2.829-2.828-2.829a7.008 7.008 0 0 0-9.899 0 6.951 6.951 0 0 0-2.043 4.95c0 1.458.444 2.842 1.259 4.007H0v14h5v30h48v-30h4v-14zM32.472 4.459a5.006 5.006 0 0 1 7.071 0A4.967 4.967 0 0 1 41 7.995c0 1.34-.518 2.596-1.457 3.535l-.472.472H24.929l4.714-4.714 2.829-2.829zM16.916 11.53a4.964 4.964 0 0 1-1.457-3.535c0-1.341.518-2.596 1.457-3.536a5.006 5.006 0 0 1 7.071 0l2.828 2.829-3.535 3.535a6.159 6.159 0 0 0-.581.689c-.054.073-.107.152-.159.229-.06.088-.123.167-.18.26h-4.972l-.472-.471zM2 24.002v-10h26v10H2zm26 2v12H7v-12h21zm-21 14h21v14H7v-14zm23 14v-14h21v14H30zm21-16H30v-12h21v12zm4-14H30v-10h25v10z"></path>
  </symbol>
  <symbol viewBox="0 -28 512.001 512" xmlns="http://www.w3.org/2000/svg" id="heart">
    <path d="M256 455.516a30.022 30.022 0 0 1-19.793-7.438c-20.684-18.086-40.625-35.082-58.219-50.074l-.09-.078c-51.582-43.957-96.125-81.918-127.117-119.313C16.137 236.81 0 197.172 0 153.871c0-42.07 14.426-80.883 40.617-109.293C67.121 15.832 103.488 0 143.031 0c29.555 0 56.621 9.344 80.446 27.77C235.5 37.07 246.398 48.453 256 61.73c9.605-13.277 20.5-24.66 32.527-33.96C312.352 9.344 339.418 0 368.973 0c39.539 0 75.91 15.832 102.414 44.578C497.578 72.988 512 111.801 512 153.871c0 43.3-16.133 82.938-50.777 124.738-30.993 37.399-75.532 75.356-127.106 119.309-17.625 15.016-37.597 32.039-58.328 50.168a30.046 30.046 0 0 1-19.789 7.43zM143.031 29.992c-31.066 0-59.605 12.399-80.367 34.914-21.07 22.856-32.676 54.45-32.676 88.965 0 36.418 13.535 68.988 43.883 105.606 29.332 35.394 72.961 72.574 123.477 115.625l.093.078c17.66 15.05 37.68 32.113 58.516 50.332 20.961-18.254 41.012-35.344 58.707-50.418 50.512-43.051 94.137-80.223 123.469-115.617 30.344-36.618 43.879-69.188 43.879-105.606 0-34.516-11.606-66.11-32.676-88.965-20.758-22.515-49.3-34.914-80.363-34.914-22.758 0-43.653 7.235-62.102 21.5-16.441 12.719-27.894 28.797-34.61 40.047-3.452 5.785-9.53 9.238-16.261 9.238s-12.809-3.453-16.262-9.238c-6.71-11.25-18.164-27.328-34.61-40.047-18.448-14.265-39.343-21.5-62.097-21.5zm0 0"></path>
  </symbol>
  <symbol xmlns="http://www.w3.org/2000/svg" viewBox="0 0 512 512" id="instagram">
    <path d="M352 0H160C71.648 0 0 71.648 0 160v192c0 88.352 71.648 160 160 160h192c88.352 0 160-71.648 160-160V160C512 71.648 440.352 0 352 0zm112 352c0 61.76-50.24 112-112 112H160c-61.76 0-112-50.24-112-112V160C48 98.24 98.24 48 160 48h192c61.76 0 112 50.24 112 112v192z"></path>
    <path d="M256 128c-70.688 0-128 57.312-128 128s57.312 128 128 128 128-57.312 128-128-57.312-128-128-128zm0 208c-44.096 0-80-35.904-80-80 0-44.128 35.904-80 80-80s80 35.872 80 80c0 44.096-35.904 80-80 80z"></path>
    <circle cx="393.6" cy="118.4" r="17.056"></circle>
  </symbol>
  <symbol xmlns="http://www.w3.org/2000/svg" viewBox="0 0 511.999 511.999" id="login">
    <path d="M418.071 297.743H93.929c-31.846 0-57.754 25.909-57.754 57.755s25.909 57.754 57.754 57.754h33.852l-4.369 3.549a16.979 16.979 0 0 0-5.909 16.892 16.976 16.976 0 0 0 12.426 12.879l2.269.583L121 490.784c-1.373 5.35 1.851 10.799 7.2 12.172l34.009 8.729a10.004 10.004 0 0 0 12.172-7.2l11.199-43.631 2.269.583a16.976 16.976 0 0 0 17.092-5.304 16.978 16.978 0 0 0 2.956-17.649l-10.257-25.233h220.431v.001c31.846 0 57.754-25.908 57.754-57.754s-25.91-57.755-57.754-57.755zM134.364 438.712l-.004.015.005-.019-.001.004zm47.752.606a11.206 11.206 0 0 0-8.556 1.216 11.206 11.206 0 0 0-5.186 6.907l-10.879 42.387-14.638-3.758 10.878-42.382a11.211 11.211 0 0 0-1.218-8.558 11.2 11.2 0 0 0-6.906-5.182l-5.064-1.301 18.953-15.396 12.441-10.106 4.108 10.106 11.123 27.364-5.056-1.297zm185.746-46.066H189.51l-4.126-10.15a9.998 9.998 0 0 0-15.57-3.996L152.4 393.252H93.929c-20.818 0-37.754-16.937-37.754-37.754 0-20.818 16.937-37.755 37.754-37.755h273.934v75.509zm50.209 0h-30.208v-75.509h30.208c20.818 0 37.754 16.937 37.754 37.755-.001 20.817-16.938 37.754-37.754 37.754z"></path>
    <path d="M423.868 332.589c-3.425-4.332-9.714-5.069-14.046-1.642-4.333 3.425-5.067 9.714-1.642 14.046l6.735 8.519-6.735 8.519c-3.425 4.332-2.69 10.621 1.642 14.046a9.954 9.954 0 0 0 6.195 2.156 9.986 9.986 0 0 0 7.851-3.798l11.64-14.721a9.997 9.997 0 0 0 0-12.404l-11.64-14.721zm-326.889 26.73a9.87 9.87 0 0 0 2.17 3.25c.46.461.97.881 1.52 1.24.54.36 1.12.67 1.72.92.61.25 1.23.44 1.87.57.65.13 1.3.2 1.96.2a10.098 10.098 0 0 0 5.55-1.69 9.92 9.92 0 0 0 1.52-1.24c.46-.46.88-.97 1.24-1.52.36-.54.67-1.12.92-1.73a10.089 10.089 0 0 0 .77-3.819c0-.65-.07-1.311-.2-1.96-.13-.63-.32-1.26-.57-1.87-.25-.601-.56-1.18-.92-1.72a9.533 9.533 0 0 0-1.24-1.521c-.46-.46-.98-.88-1.52-1.25a10.098 10.098 0 0 0-3.6-1.49c-3.25-.649-6.7.41-9.02 2.74-.46.46-.88.97-1.25 1.521-.36.54-.67 1.119-.92 1.72-.25.61-.44 1.24-.57 1.87-.13.649-.19 1.31-.19 1.96a9.847 9.847 0 0 0 .76 3.819zm53.181 0a9.87 9.87 0 0 0 2.17 3.25c.46.461.97.881 1.52 1.24.54.36 1.12.67 1.72.92.61.25 1.24.44 1.87.57.65.13 1.31.2 1.96.2s1.31-.07 1.95-.2c.64-.13 1.27-.32 1.87-.57a9.87 9.87 0 0 0 1.73-.92 9.462 9.462 0 0 0 1.52-1.24c.46-.46.88-.97 1.24-1.52.36-.54.67-1.12.92-1.73a10.089 10.089 0 0 0 .77-3.819c0-.65-.07-1.311-.2-1.96-.13-.63-.32-1.26-.57-1.87-.25-.601-.56-1.18-.92-1.72a9.533 9.533 0 0 0-1.24-1.521c-2.32-2.33-5.77-3.39-9.03-2.74-.63.13-1.26.32-1.87.57-.6.25-1.18.56-1.72.92a10.172 10.172 0 0 0-2.77 2.771c-.36.54-.67 1.119-.92 1.72-.25.61-.44 1.24-.57 1.87-.13.649-.19 1.31-.19 1.96a9.847 9.847 0 0 0 .76 3.819zm53.189 0c.25.61.56 1.19.92 1.73.36.55.78 1.06 1.24 1.52.46.461.97.881 1.52 1.24.54.36 1.12.67 1.73.92a10.098 10.098 0 0 0 3.82.77 10.098 10.098 0 0 0 3.82-.77 9.87 9.87 0 0 0 1.73-.92 9.462 9.462 0 0 0 1.52-1.24c.46-.46.88-.97 1.24-1.52.36-.54.67-1.12.92-1.73a10.089 10.089 0 0 0 .77-3.819c0-.65-.07-1.311-.2-1.96a9.81 9.81 0 0 0-.57-1.87c-.25-.601-.56-1.18-.92-1.72a9.533 9.533 0 0 0-1.24-1.521c-2.32-2.33-5.78-3.39-9.02-2.74-.64.13-1.27.32-1.88.57-.6.25-1.18.56-1.72.92-.55.37-1.06.79-1.52 1.25-.46.46-.88.97-1.24 1.521-.36.54-.67 1.119-.92 1.72a9.81 9.81 0 0 0-.57 1.87c-.13.649-.2 1.31-.2 1.96 0 .649.07 1.31.2 1.95.12.64.32 1.27.57 1.869zm53.181 0c.25.61.56 1.19.92 1.73.36.55.78 1.06 1.24 1.52.46.461.97.881 1.52 1.24.54.36 1.12.67 1.73.92a10.098 10.098 0 0 0 3.82.77 10.098 10.098 0 0 0 3.82-.77 9.87 9.87 0 0 0 1.73-.92 9.462 9.462 0 0 0 1.52-1.24c.46-.46.88-.97 1.24-1.52.36-.54.67-1.12.92-1.73.25-.6.45-1.229.57-1.869.13-.641.2-1.301.2-1.95 0-.65-.07-1.311-.2-1.96a9.81 9.81 0 0 0-.57-1.87c-.25-.601-.56-1.18-.92-1.72a9.533 9.533 0 0 0-1.24-1.521c-2.32-2.33-5.78-3.39-9.02-2.74-.64.13-1.27.32-1.87.57a9.87 9.87 0 0 0-4.49 3.691c-.36.54-.67 1.119-.92 1.72-.25.61-.44 1.24-.57 1.87-.13.649-.2 1.31-.2 1.96 0 .649.07 1.31.2 1.95.13.64.32 1.27.57 1.869zm53.18 0c.25.61.56 1.19.92 1.73.36.55.78 1.06 1.24 1.52.46.461.97.881 1.52 1.24.54.36 1.12.67 1.73.92a10.098 10.098 0 0 0 3.82.77c.65 0 1.31-.07 1.96-.2.63-.13 1.26-.32 1.87-.57.6-.25 1.18-.56 1.72-.92a9.462 9.462 0 0 0 1.52-1.24 9.87 9.87 0 0 0 2.17-3.25 9.855 9.855 0 0 0 .76-3.819c0-.65-.06-1.311-.19-1.96-.13-.63-.32-1.26-.57-1.87-.25-.601-.56-1.18-.92-1.72a10.172 10.172 0 0 0-2.77-2.771c-.54-.36-1.12-.67-1.72-.92-.61-.25-1.24-.44-1.87-.57a9.898 9.898 0 0 0-3.91 0c-.64.13-1.27.32-1.87.57a9.87 9.87 0 0 0-4.49 3.691c-.36.54-.67 1.119-.92 1.72-.25.61-.44 1.24-.57 1.87-.13.649-.2 1.31-.2 1.96 0 .649.07 1.31.2 1.95s.32 1.27.57 1.869zM168.259 252.763c.245.233.498.459.768.668 22.963 17.766 50.111 27.821 78.925 29.321l.616.031c.914.044 1.831.078 2.748.105.27.008.54.018.81.025 1.131.026 2.263.043 3.399.043 1.142 0 2.281-.017 3.419-.043.26-.006.518-.016.777-.024a145.627 145.627 0 0 0 3.351-.135c29.286-1.515 56.797-11.843 79.972-30.112.318-.251.617-.522.899-.806C376.267 225.885 397 186.061 397 141.479 397.001 63.467 333.535 0 255.525 0S114.046 63.467 114.046 141.478c0 45.113 21.224 85.361 54.213 111.285zm100.256 9.496c-.62.065-1.241.125-1.863.181-.688.063-1.375.126-2.066.177a123.113 123.113 0 0 1-4.847.256c-1.401.047-2.805.081-4.215.081-1.392 0-2.778-.033-4.162-.079a126.694 126.694 0 0 1-4.664-.243c-.666-.048-1.33-.106-1.993-.165a128.25 128.25 0 0 1-4.543-.48c-.141-.018-.281-.039-.422-.057-20.159-2.627-38.78-10.213-54.596-21.493v-18.105c0-23.827 11.834-44.928 29.92-57.779 11.304 8.834 25.509 14.119 40.934 14.119s29.631-5.284 40.934-14.119c18.086 12.851 29.92 33.952 29.92 57.779v17.412h.001c-16.74 12.185-36.696 20.204-58.338 22.515zM255.525 20c66.983 0 121.478 54.494 121.478 121.478 0 30.622-11.394 58.63-30.159 80.018-.265-29.199-14.371-55.15-36.064-71.597 7.453-10.756 11.835-23.793 11.835-37.841 0-3.305-.245-6.629-.729-9.88-.813-5.462-5.897-9.231-11.363-8.419-5.463.813-9.232 5.899-8.419 11.362.339 2.279.511 4.613.511 6.937 0 10.303-3.366 19.832-9.048 27.557a46.895 46.895 0 0 1-17.859 14.673 46.322 46.322 0 0 1-19.707 4.385 46.322 46.322 0 0 1-19.707-4.385 46.895 46.895 0 0 1-17.859-14.673c-5.682-7.725-9.048-17.253-9.048-27.557 0-25.703 20.911-46.614 46.614-46.614 3.538 0 7.061.396 10.473 1.179 5.389 1.239 10.749-2.129 11.982-7.513 1.234-5.383-2.129-10.747-7.512-11.981a66.948 66.948 0 0 0-14.942-1.685c-36.731 0-66.614 29.883-66.614 66.614 0 14.048 4.382 27.085 11.835 37.841-21.901 16.604-36.075 42.893-36.075 72.433v.222c-19.326-21.518-31.101-49.946-31.101-81.076C134.046 74.494 188.541 20 255.525 20z"></path>
    <path d="M288.259 77.37c.25.6.56 1.18.92 1.72.36.55.78 1.06 1.24 1.52.46.471.97.881 1.52 1.25a10.096 10.096 0 0 0 3.6 1.49c.64.13 1.3.19 1.95.19s1.31-.061 1.95-.19c.64-.13 1.27-.319 1.88-.569.6-.25 1.18-.561 1.72-.921a9.522 9.522 0 0 0 1.52-1.25c.46-.46.88-.97 1.24-1.52.36-.54.67-1.12.92-1.72.25-.61.45-1.23.57-1.87.13-.65.2-1.3.2-1.96 0-.65-.07-1.311-.2-1.95-.12-.64-.32-1.271-.57-1.87s-.56-1.189-.92-1.729a9.533 9.533 0 0 0-1.24-1.521 9.57 9.57 0 0 0-1.52-1.24c-.54-.359-1.12-.67-1.72-.92-.61-.25-1.24-.439-1.88-.569a9.81 9.81 0 0 0-3.9 0 10.096 10.096 0 0 0-3.6 1.489c-.55.36-1.06.78-1.52 1.24-.46.46-.88.97-1.24 1.521-.36.54-.67 1.13-.92 1.729s-.44 1.23-.57 1.87c-.13.64-.2 1.3-.2 1.95 0 .66.07 1.31.2 1.96.13.64.32 1.26.57 1.87z"></path>
  </symbol>
  <symbol viewBox="-2 0 512 512" xmlns="http://www.w3.org/2000/svg" id="login_signup">
    <path d="M437.602 371.473H70.266C31.52 371.473 0 402.993 0 441.734 0 480.48 31.52 512 70.266 512h367.336c38.742 0 70.261-31.52 70.261-70.266 0-38.742-31.52-70.261-70.261-70.261zM20 441.734c0-27.714 22.547-50.261 50.266-50.261h276.03V492H70.267C42.546 492 20 469.453 20 441.734zM437.602 492h-71.305V391.473h71.305c27.714 0 50.261 22.547 50.261 50.261 0 27.72-22.547 50.266-50.261 50.266zm0 0"></path>
    <path d="M431.363 411.586c-3.547-4.23-9.855-4.785-14.086-1.234-4.23 3.546-4.785 9.855-1.238 14.086l6.121 7.296h-19.945c-5.524 0-10 4.48-10 10 0 5.524 4.476 10 10 10h19.945l-6.12 7.301c-3.548 4.23-2.993 10.54 1.237 14.086a9.96 9.96 0 0 0 6.422 2.34 9.985 9.985 0 0 0 7.664-3.574l19.899-23.727a10 10 0 0 0 0-12.851zm-328.691 10.09c-3.906-3.903-10.234-3.903-14.14 0l-5.919 5.918-5.914-5.918c-3.906-3.903-10.234-3.903-14.144 0-3.907 3.906-3.907 10.238 0 14.144l5.918 5.914-5.918 5.918c-3.907 3.907-3.907 10.239 0 14.145 1.953 1.95 4.511 2.926 7.07 2.926s5.117-.977 7.07-2.926l5.918-5.918 5.914 5.918a9.982 9.982 0 0 0 7.075 2.926 9.98 9.98 0 0 0 7.07-2.926c3.902-3.906 3.902-10.238 0-14.145l-5.918-5.918 5.918-5.914c3.906-3.906 3.906-10.238 0-14.144zm72.32 0c-3.902-3.903-10.234-3.903-14.14 0l-5.918 5.918-5.914-5.918c-3.907-3.903-10.235-3.903-14.145 0-3.902 3.906-3.902 10.238 0 14.144l5.918 5.914-5.918 5.918c-3.902 3.907-3.902 10.239 0 14.145a9.98 9.98 0 0 0 7.07 2.926 9.982 9.982 0 0 0 7.075-2.926l5.914-5.918 5.918 5.918c1.953 1.95 4.511 2.926 7.07 2.926s5.117-.977 7.07-2.926c3.906-3.906 3.906-10.238 0-14.145l-5.918-5.918 5.918-5.914c3.906-3.906 3.906-10.238 0-14.144zm72.321 0c-3.907-3.903-10.235-3.903-14.141 0l-5.918 5.918-5.914-5.918c-3.906-3.903-10.235-3.903-14.145 0-3.906 3.906-3.906 10.238 0 14.144l5.918 5.914-5.918 5.918c-3.906 3.907-3.906 10.239 0 14.145 1.953 1.95 4.512 2.926 7.07 2.926s5.122-.977 7.075-2.926l5.914-5.918 5.918 5.918a9.973 9.973 0 0 0 7.07 2.926 9.98 9.98 0 0 0 7.07-2.926c3.907-3.906 3.907-10.238 0-14.145l-5.917-5.918 5.917-5.914c3.907-3.906 3.907-10.238 0-14.144zm66.406 20.058l5.918-5.914c3.902-3.906 3.902-10.238 0-14.144-3.907-3.903-10.239-3.903-14.145 0l-5.918 5.918-5.914-5.918c-3.906-3.903-10.234-3.903-14.144 0-3.903 3.906-3.903 10.238 0 14.144l5.918 5.914-5.918 5.918c-3.903 3.907-3.903 10.239 0 14.145a9.982 9.982 0 0 0 7.074 2.926 9.98 9.98 0 0 0 7.07-2.926l5.914-5.918 5.918 5.918c1.953 1.95 4.512 2.926 7.07 2.926s5.118-.977 7.07-2.926c3.907-3.906 3.907-10.238 0-14.145zm89.617-295.082l-.055-.054-.015-.012-.121-.117-.008-.004c-.371-.356-.754-.7-1.137-1.035-.043-.035-4.129-3.102-4.156-3.121-.414-.262-3.16-1.832-3.403-1.946-.914-.468-4.191-1.808-4.226-1.82-.832-.297-5.89-1.563-6.367-1.637a37.126 37.126 0 0 0-6.016-.496h-41.14a93.555 93.555 0 0 0 10.55-43.101c0-51.45-41.86-93.309-93.308-93.309-51.454 0-93.313 41.86-93.313 93.309a93.51 93.51 0 0 0 10.555 43.101H130.03c-2 0-4.023.168-6.015.496-.477.074-.954.16-1.418.258-.563.11-2.227.531-2.57.633-.762.203-1.544.445-2.38.746-.03.012-4.71 2.059-4.953 2.187-.039.02-.078.043-.113.063a85.468 85.468 0 0 0-2.559 1.516c-.03.02-2.375 1.664-2.796 1.996a67.656 67.656 0 0 0-1.364 1.125c-.426.37-.851.757-1.265 1.156l-.036.035a.13.13 0 0 1-.027.024c-7.254 6.917-11.414 16.636-11.414 26.683v137.613c0 7.063 2 13.93 5.785 19.856a10.077 10.077 0 0 0 2.067 2.336 9.98 9.98 0 0 0 1.703 2.597 37.005 37.005 0 0 0 27.36 12.13h247.956a37.004 37.004 0 0 0 27.195-12.13v-.003l.004-.004a36.856 36.856 0 0 0 9.551-24.786V173.328c0-10.047-4.156-19.758-11.406-26.676zM329.46 226.13l64.738-57.09c.36 1.379.543 2.82.543 4.29V309zM253.934 20c40.421 0 73.308 32.887 73.308 73.309 0 17.035-5.969 33.625-16.808 46.722a73.472 73.472 0 0 1-2.836 3.227c-.305-14.774-6.774-28.735-17.52-38.567a41.306 41.306 0 0 0 5.422-20.507c0-22.922-18.645-41.567-41.566-41.567s-41.57 18.645-41.57 41.567a41.306 41.306 0 0 0 5.421 20.507c-10.742 9.832-17.215 23.793-17.515 38.567a71.966 71.966 0 0 1-2.833-3.223c-10.843-13.097-16.816-29.691-16.816-46.722 0-40.426 32.887-73.313 73.313-73.313zm1.12 85.723h-.019l-.234.011h-.043a4.73 4.73 0 0 1-.238.008c-.012 0-.024.004-.036.004-.082 0-.16 0-.242.004h-.035c-.094.004-.184.004-.277.004-.09 0-.184 0-.274-.004h-.039c-.078 0-.156-.004-.238-.004-.012 0-.024-.004-.035-.004-.078 0-.16-.004-.239-.008h-.042l-.239-.011h-.02c-11.37-.586-20.445-10.024-20.445-21.54 0-11.894 9.676-21.566 21.57-21.566 11.891 0 21.567 9.672 21.567 21.567.004 11.515-9.066 20.953-20.441 21.539zm-23.519 13.492c6.184 3.969 13.309 6.219 20.77 6.504.011 0 .023.004.039.004.168.004.336.011.508.015h.043c.148.004.292.008.44.008h.11c.164.004.325.004.489.004.16 0 .324 0 .484-.004h.113c.145 0 .293-.004.442-.008h.043l.507-.015c.012 0 .028 0 .04-.004a41.258 41.258 0 0 0 20.765-6.504c7.078 6.332 11.281 15.484 11.281 25.129v14.101c-10.273 5.317-21.78 8.172-33.675 8.172-11.895 0-23.403-2.855-33.676-8.172v-14.101c0-9.645 4.203-18.797 11.277-25.13zm-46.347 37.195c17.675 19.258 42.464 30.211 68.746 30.211s51.066-10.953 68.742-30.21h55.156c.148 0 .297.003.445.007l-68.992 60.836c-.05.043-.101.086-.148.129l-42.172 37.183c-7.434 6.551-18.637 6.551-26.067 0l-42.168-37.183a2.155 2.155 0 0 0-.144-.121l-69-60.848c.148-.004.297-.004.445-.004zm-60.72 170.504l13.012-16.516c3.418-4.336 2.668-10.625-1.667-14.043a9.998 9.998 0 0 0-14.043 1.668L113.12 309V173.328c0-1.469.184-2.91.543-4.289l64.742 57.09-10.445 13.258c-3.418 4.34-2.672 10.625 1.668 14.043 4.34 3.418 10.625 2.672 14.043-1.668l9.758-12.383 34.242 30.191c7.484 6.602 16.871 9.899 26.262 9.899 9.386 0 18.777-3.297 26.265-9.899l34.238-30.191 68.958 87.535a16.824 16.824 0 0 1-5.563.945H130.035c-1.914 0-3.793-.328-5.566-.945zm0 0"></path>
    <path d="M152.816 264.77c-5.52 0-10 4.476-10 10v.023c0 5.523 4.48 9.988 10 9.988 5.524 0 10-4.488 10-10.011 0-5.524-4.476-10-10-10zm0 0"></path>
  </symbol>
  <symbol xmlns="http://www.w3.org/2000/svg" viewBox="0 0 451 451" id="magnifying-glass">
    <path d="M447.05 428l-109.6-109.6c29.4-33.8 47.2-77.9 47.2-126.1C384.65 86.2 298.35 0 192.35 0 86.25 0 .05 86.3.05 192.3s86.3 192.3 192.3 192.3c48.2 0 92.3-17.8 126.1-47.2L428.05 447c2.6 2.6 6.1 4 9.5 4s6.9-1.3 9.5-4c5.2-5.2 5.2-13.8 0-19zM26.95 192.3c0-91.2 74.2-165.3 165.3-165.3 91.2 0 165.3 74.2 165.3 165.3s-74.1 165.4-165.3 165.4c-91.1 0-165.3-74.2-165.3-165.4z"></path>
  </symbol>
  <symbol xmlns="http://www.w3.org/2000/svg" viewBox="0 0 511.977 511.977" id="pinterest">
    <path d="M262.948 0C122.628 0 48.004 89.92 48.004 187.968c0 45.472 25.408 102.176 66.08 120.16 6.176 2.784 9.536 1.6 10.912-4.128 1.216-4.352 6.56-25.312 9.152-35.2.8-3.168.384-5.92-2.176-8.896-13.504-15.616-24.224-44.064-24.224-70.752 0-68.384 54.368-134.784 146.88-134.784 80 0 135.968 51.968 135.968 126.304 0 84-44.448 142.112-102.208 142.112-31.968 0-55.776-25.088-48.224-56.128 9.12-36.96 27.008-76.704 27.008-103.36 0-23.904-13.504-43.68-41.088-43.68-32.544 0-58.944 32.224-58.944 75.488 0 27.488 9.728 46.048 9.728 46.048S144.676 371.2 138.692 395.488c-10.112 41.12 1.376 107.712 2.368 113.44.608 3.168 4.16 4.16 6.144 1.568 3.168-4.16 42.08-59.68 52.992-99.808 3.968-14.624 20.256-73.92 20.256-73.92 10.72 19.36 41.664 35.584 74.624 35.584 98.048 0 168.896-86.176 168.896-193.12C463.62 76.704 375.876 0 262.948 0z"></path>
  </symbol>
  <symbol viewBox="-3 0 486 486.4" xmlns="http://www.w3.org/2000/svg" id="refund">
    <path d="M252.2 0c-125.598 0-228 102.398-228 228 0 7.2 0 13.602.8 20.8l16-1.6c-.8-6.4-.8-12.802-.8-19.2 0-116.8 95.198-212 212-212s212 95.2 212 212c0 114.398-90.4 208-204 212l17.6-17.602-11.198-11.199L229 448.801l37.602 37.597L277.8 475.2 258.6 456c126.4-4 225.6-108.8 221.6-234.398C476.2 98.398 375.4 0 252.2 0zm0 0"></path>
    <path d="M400.2 96h-288v144h288zm-16 128h-256V112h256zm0 0"></path>
    <path d="M256.2 200c17.6 0 32-14.398 32-32s-14.4-32-32-32c-17.598 0-32 14.398-32 32s14.402 32 32 32zm0-48c8.8 0 16 7.2 16 16s-7.2 16-16 16-16-7.2-16-16 7.198-16 16-16zm-96-8h16v-16h-32v32h16zm16 48h-16v-16h-16v32h32zm192-16h-16v16h-16v16h32zm-16-16h16v-32h-32v16h16zm-168 0h24v16h-24zm120 0h24v16h-24zm-256 184h16v24h-16zm0 0"></path>
    <path d="M400.2 327.2c0-16-13.598-29.598-29.598-29.598-2.403 0-5.602 0-8 .796l-96.801 28c-.801 0-2.403.801-3.2 0l-22.402-4c15.2-8.796 20.801-28 12.801-43.199-5.602-10.398-16-16.8-28-16.8H124.2c-4 0-8 .8-12 3.203L96.2 276v-12H.2v136h96v-20l79.198 32.8c4.801 2.4 11.204 2.4 16 .802l187.204-58.403c12.796-3.199 21.597-14.398 21.597-28zM80.2 384h-64V280h32v48h16v-48h16zm107.198 14.398c-1.597.801-4 .801-5.597 0l-85.602-36v-68l24-13.597c.801-.801 2.403-.801 4-.801h100c8.801 0 16 7.2 16 16s-7.199 16-16 16h-56v8l-1.597 8 92 15.2c3.199.8 7.199 0 10.398-.802l96.8-28c7.2-2.398 14.4 2.403 16.802 9.602 2.398 7.2-1.602 14.398-8.801 16.8zm0 0"></path>
  </symbol>
  <symbol xmlns="http://www.w3.org/2000/svg" viewBox="0 0 511.893 511.893" id="return-box">
    <path d="M483.9 251.948a3.996 3.996 0 0 0-3.999 3.999c0 130.105-105.846 235.951-235.951 235.951-130.106 0-235.951-105.846-235.951-235.951 0-130.106 105.844-235.951 235.951-235.95 75.742 0 147.406 36.765 191.694 98.354 1.289 1.797 3.78 2.195 5.585.914a4.008 4.008 0 0 0 .914-5.585C396.355 50.013 322.262 11.998 243.95 11.998 109.438 11.998 0 121.436 0 255.947s109.438 243.949 243.95 243.949c134.511 0 243.949-109.438 243.949-243.949a3.997 3.997 0 0 0-3.999-3.999z"></path>
    <path d="M510.722 277.115l-23.995-23.996a3.998 3.998 0 1 0-5.655 5.655l23.995 23.995a3.988 3.988 0 0 0 2.828 1.172 3.98 3.98 0 0 0 2.827-1.172 3.997 3.997 0 0 0 0-5.654z"></path>
    <path d="M486.727 253.119a3.998 3.998 0 0 0-5.655 0l-23.995 23.996a3.997 3.997 0 0 0 2.828 6.826 3.98 3.98 0 0 0 2.827-1.172l23.995-23.995a3.998 3.998 0 0 0 0-5.655zm-122.803-69.157H139.971c-2.211 0-4 1.789-4 3.999v175.964a3.997 3.997 0 0 0 4 3.999h223.954c2.21 0 4-1.789 3.999-3.999V187.961a3.997 3.997 0 0 0-4-3.999zm-3.999 175.964H143.97V191.96h215.955v167.966z"></path>
    <path d="M366.753 185.134l-31.994-31.993a3.995 3.995 0 0 0-2.827-1.172H171.965a3.996 3.996 0 0 0-2.828 1.172l-31.994 31.993c-1.14 1.14-1.484 2.866-.867 4.358s2.078 2.468 3.695 2.468h223.954a4.001 4.001 0 0 0 3.695-2.468 4.01 4.01 0 0 0-.867-4.358zm-217.127-1.172l23.994-23.995h156.656l23.995 23.995H149.626z"></path>
    <path d="M245.738 152.389c-1.976-.984-4.366-.179-5.366 1.789l-15.997 31.994a4.004 4.004 0 0 0 3.578 5.788 4.007 4.007 0 0 0 3.577-2.212l15.997-31.993a4.003 4.003 0 0 0-1.789-5.366zm33.782 33.785l-15.996-31.994a3.996 3.996 0 0 0-5.366-1.789 4.003 4.003 0 0 0-1.789 5.366l15.997 31.993a4.008 4.008 0 0 0 5.365 1.79 4.003 4.003 0 0 0 1.789-5.366z"></path>
    <path d="M227.953 183.961a3.997 3.997 0 0 0-3.999 3.999v31.994c0 2.211 1.789 4 3.999 4a3.997 3.997 0 0 0 3.999-4V187.96a3.997 3.997 0 0 0-3.999-3.999z"></path>
    <path d="M275.943 215.955h-47.99c-2.21 0-3.999 1.788-3.999 3.999s1.789 4 3.999 4h47.99c2.21 0 3.999-1.79 3.999-4a3.997 3.997 0 0 0-3.999-3.999z"></path>
    <path d="M275.943 183.961a3.997 3.997 0 0 0-3.999 3.999v31.994c0 2.211 1.788 4 3.999 4a3.997 3.997 0 0 0 3.999-4V187.96a3.997 3.997 0 0 0-3.999-3.999zm-47.99 31.994a3.997 3.997 0 0 0-3.999 3.999v4a3.997 3.997 0 0 0 3.999 3.999 3.997 3.997 0 0 0 3.999-3.999v-4a3.997 3.997 0 0 0-3.999-3.999zm15.997 0c-2.211 0-4 1.789-4 3.999v4a3.997 3.997 0 0 0 4 3.999 3.997 3.997 0 0 0 3.999-3.999v-4a3.997 3.997 0 0 0-3.999-3.999zm15.996 0a3.997 3.997 0 0 0-3.999 3.999v4a3.997 3.997 0 0 0 3.999 3.999c2.211 0 4-1.789 4-3.999v-4a3.997 3.997 0 0 0-4-3.999z"></path>
    <path d="M275.943 215.955a3.997 3.997 0 0 0-3.999 3.999v4a3.997 3.997 0 0 0 3.999 3.999 3.997 3.997 0 0 0 3.999-3.999v-4a3.997 3.997 0 0 0-3.999-3.999zm71.985 111.976h-15.997a3.997 3.997 0 0 0-3.999 4v15.996c0 2.211 1.789 4 3.999 4h15.997a3.997 3.997 0 0 0 3.999-4v-15.996c0-2.211-1.789-4-3.999-4zm-4 15.997h-7.998v-7.998h7.998v7.998zm-27.994-15.997h-15.996a3.997 3.997 0 0 0-3.999 4v15.996c0 2.211 1.788 4 3.999 4h15.996c2.211 0 4-1.789 4-4v-15.996c0-2.211-1.789-4-4-4zm-3.999 15.997h-7.998v-7.998h7.998v7.998zm-75.984-15.997h-79.984a3.997 3.997 0 0 0-3.999 4 3.997 3.997 0 0 0 3.999 3.999h79.984a3.997 3.997 0 0 0 3.999-3.999c0-2.211-1.789-4-3.999-4zm-39.991 15.997h-39.992a3.997 3.997 0 0 0-3.999 3.999c0 2.211 1.789 4 3.999 4h39.992a3.997 3.997 0 0 0 3.999-4 3.997 3.997 0 0 0-3.999-3.999z"></path>
  </symbol>
  <symbol xmlns="http://www.w3.org/2000/svg" viewBox="0 0 479.969 479.969" id="shield">
    <path d="M396.169 34.38c-.535 0-1.069.055-1.594.162a208.991 208.991 0 0 1-151.664-26.88l-10.552-6.48a8 8 0 0 0-8.368 0l-10.552 6.48A208.993 208.993 0 0 1 61.775 34.51a7.999 7.999 0 0 0-9.6 7.864v245.92a177.905 177.905 0 0 0 24.352 89.92 171.294 171.294 0 0 0 79.368 70.792l69.08 30.296c2.04.891 4.36.891 6.4 0l69.104-30.296a171.147 171.147 0 0 0 11.44-5.528 8.002 8.002 0 0 0 3.316-10.82 8.002 8.002 0 0 0-10.82-3.316 155.874 155.874 0 0 1-10.36 5.008l-65.88 28.888-65.856-28.864a155.434 155.434 0 0 1-72-64.256 161.87 161.87 0 0 1-22.144-81.856V51.933a225.05 225.05 0 0 0 153.6-30.664l6.4-3.912 6.4 3.904a224.914 224.914 0 0 0 153.6 30.672v236.328a8 8 0 0 0 16 0V42.373a7.998 7.998 0 0 0-8.006-7.993z"></path>
    <path d="M227.593 60.059a8 8 0 0 0-11.417-2.982 175.2 175.2 0 0 1-122.4 20.728 7.999 7.999 0 0 0-9.6 7.848v191.12a135.55 135.55 0 0 0 20.088 70.928 138.932 138.932 0 0 0 65.216 55.696 8.001 8.001 0 0 0 10.472-4.288 8.001 8.001 0 0 0-4.288-10.472 122.988 122.988 0 0 1-57.76-49.304 119.61 119.61 0 0 1-17.728-62.56V95.125a190.951 190.951 0 0 0 124.08-24.256 8 8 0 0 0 3.337-10.81zm197.448 342.284a8 8 0 0 0-10.465-.026l-38.256 38.256c-2.667-.8-5.509-.8-8.176 0l-70.256-70.256a8 8 0 0 0-11.312 11.312l70.248 70.256c-2.369 8.398 2.52 17.127 10.918 19.495 1.442.407 2.935.606 4.434.593 8.837 0 16-7.163 16-16a15.707 15.707 0 0 0-.6-4.088l38.256-38.256a8 8 0 0 0-.791-11.286z"></path>
    <path d="M353.832 178.317l-32-32a8 8 0 0 0-11.312 0l-98.344 98.344-26.344-26.344a8 8 0 0 0-11.312 0l-32 32a8 8 0 0 0 0 11.312l64 64a8 8 0 0 0 11.312 0l136-136a8 8 0 0 0 0-11.312zM212.176 308.661l-52.656-52.688 20.656-20.688 26.4 26.344a8 8 0 0 0 11.312 0l98.288-98.344 20.72 20.688-124.72 124.688z"></path>
  </symbol>
  <symbol xmlns="http://www.w3.org/2000/svg" viewBox="0 0 489 489" id="shopping-bag">
    <path d="M440.1 422.7l-28-315.3c-.6-7-6.5-12.3-13.4-12.3h-57.6C340.3 42.5 297.3 0 244.5 0s-95.8 42.5-96.6 95.1H90.3c-7 0-12.8 5.3-13.4 12.3l-28 315.3c0 .4-.1.8-.1 1.2 0 35.9 32.9 65.1 73.4 65.1h244.6c40.5 0 73.4-29.2 73.4-65.1 0-.4 0-.8-.1-1.2zM244.5 27c37.9 0 68.8 30.4 69.6 68.1H174.9c.8-37.7 31.7-68.1 69.6-68.1zm122.3 435H122.2c-25.4 0-46-16.8-46.4-37.5l26.8-302.3h45.2v41c0 7.5 6 13.5 13.5 13.5s13.5-6 13.5-13.5v-41h139.3v41c0 7.5 6 13.5 13.5 13.5s13.5-6 13.5-13.5v-41h45.2l26.9 302.3c-.4 20.7-21.1 37.5-46.4 37.5z"></path>
  </symbol>
  <symbol viewBox="0 0 64 64" xmlns="http://www.w3.org/2000/svg" id="signup">
    <path d="M1.006 58.506h37.977a1 1 0 0 0 1-1V8.502c0-1.654-1.346-3-3-3H3.006c-1.654 0-3 1.346-3 3v49.003a1 1 0 0 0 1 1.001zm1-47.004h35.977v45.003H2.006zm1-4h1.02c-.552 0-.994.448-.994 1s.452 1 1.005 1a1 1 0 0 0 0-2h2.988c-.552 0-.994.448-.994 1s.452 1 1.005 1a1 1 0 0 0 0-2h2.992c-.552 0-.994.448-.994 1s.452 1 1.005 1a1 1 0 0 0 0-2h26.944c.552 0 1 .449 1 1v1H2.006v-1c0-.551.448-1 1-1z"></path>
    <path d="M34.989 28.5H4.999a1 1 0 0 0-1 1v6.001a1 1 0 0 0 1 1h29.99a1 1 0 0 0 1-1V29.5a1 1 0 0 0-1-1zm-1 6.002H5.999V30.5h27.99zm1 2.996H4.999a1 1 0 0 0-1 1V44.5a1 1 0 0 0 1 1h29.99a1 1 0 0 0 1-1v-6.002a1 1 0 0 0-1-1zm-1 6.002H5.999v-4.002h27.99z"></path>
    <path d="M9.994 33.5h20a1 1 0 1 0 0-2h-20a1 1 0 1 0 0 2zm1.03 9a1 1 0 1 0 0-2h-.011c-.552 0-.994.447-.994 1s.453 1 1.005 1zm3 0a1 1 0 1 0 0-2h-.011c-.552 0-.994.447-.994 1s.453 1 1.005 1zm3 0a1 1 0 1 0 0-2h-.011c-.552 0-.994.447-.994 1s.453 1 1.005 1zm3 0a1 1 0 1 0 0-2h-.011c-.552 0-.994.447-.994 1s.453 1 1.005 1zm3 0a1 1 0 1 0 0-2h-.011c-.552 0-.994.447-.994 1s.453 1 1.005 1zm3 0a1 1 0 1 0 0-2h-.011c-.552 0-.994.447-.994 1s.453 1 1.005 1zm3 0a1 1 0 1 0 0-2h-.011c-.552 0-.994.447-.994 1s.453 1 1.005 1zm-1.029 4H11.994a4.006 4.006 0 0 0-4.001 4.002c0 2.206 1.795 4 4.001 4h16c.007 0 .012-.004.019-.004a4.003 4.003 0 0 0 3.982-3.998c0-2.206-1.794-4-4-4zm0 6l-.01.002H11.994a2.002 2.002 0 0 1 0-4.002h16.001c1.103 0 2 .897 2 2s-.897 2-2 2z"></path>
    <path d="M25.994 49.5h-12a1 1 0 1 0 0 2h12a1 1 0 1 0 0-2zM15.546 25.898c.006.006.014.01.021.016a6.967 6.967 0 0 0 4.431 1.586 6.964 6.964 0 0 0 4.44-1.594l.005-.003a6.99 6.99 0 0 0 2.555-5.404c0-3.86-3.141-7-7-7s-7 3.14-7 7a6.984 6.984 0 0 0 2.548 5.399zm1.975-1.08a3.002 3.002 0 0 1 2.475-1.318c1.008 0 1.926.512 2.476 1.319a4.936 4.936 0 0 1-2.475.682 4.956 4.956 0 0 1-2.476-.683zm2.476-3.318a1.001 1.001 0 0 1 0-2 1.001 1.001 0 0 1 0 2zm0-6c2.757 0 5 2.243 5 5a4.95 4.95 0 0 1-1.014 2.986 4.99 4.99 0 0 0-1.502-1.307 2.981 2.981 0 0 0 .516-1.679c0-1.654-1.346-3-3-3s-3 1.346-3 3c0 .622.19 1.199.515 1.678a5.015 5.015 0 0 0-1.502 1.307 4.953 4.953 0 0 1-1.013-2.985c0-2.757 2.243-5 5-5zm32.997 43c6.065 0 11-4.935 11-11 0-2.912-1.146-5.557-3-7.526V31.5c0-4.411-3.589-8-8-8s-8 3.589-8 8v8.474a10.95 10.95 0 0 0-3 7.526c0 6.065 4.935 11 11 11zm0-2c-4.963 0-9-4.037-9-9s4.037-9 9-9 9 4.037 9 9-4.037 9-9 9zm-3-25c0-1.654 1.346-3 3-3s3 1.346 3 3v5.427c-.955-.271-1.959-.427-3-.427s-2.045.155-3 .427zm3-6c3.309 0 6 2.691 6 6v6.792c-.322-.21-.656-.401-1-.578V31.5c0-2.757-2.243-5-5-5s-5 2.243-5 5v6.214c-.344.177-.678.368-1 .578V31.5c0-3.309 2.692-6 6-6z"></path>
    <path d="M59.057 44c-.008-.015-.022-.021-.031-.035-1.218-2.069-3.462-3.465-6.031-3.465-2.568 0-4.813 1.396-6.031 3.464-.009.014-.022.021-.031.036-.007.012-.006.024-.012.036a6.942 6.942 0 0 0 0 6.928c.006.012.005.024.012.036.013.022.031.038.046.06 1.221 2.056 3.458 3.44 6.017 3.44s4.796-1.385 6.017-3.44c.015-.021.033-.037.046-.06.007-.012.006-.024.012-.036a6.942 6.942 0 0 0 0-6.928c-.008-.012-.008-.024-.014-.036zm-6.063 5.5c-1.103 0-2-.897-2-2s.897-2 2-2 2 .897 2 2-.897 2-2 2zm-5-2c0-.553.111-1.074.277-1.571l.884.51c-.095.34-.161.691-.161 1.062s.066.722.161 1.062l-.884.51a4.951 4.951 0 0 1-.277-1.573zm8.839-1.062l.884-.51c.166.497.277 1.019.277 1.571s-.111 1.074-.277 1.571l-.884-.51c.095-.34.161-.691.161-1.062s-.066-.72-.161-1.06zm-.116-2.243l-.873.505a4.005 4.005 0 0 0-1.85-1.059v-1.04c1.079.22 2.018.8 2.723 1.594zm-4.723-1.593v1.04c-.711.186-1.35.55-1.85 1.059l-.873-.505a4.97 4.97 0 0 1 2.723-1.594zm-2.723 8.203l.873-.505c.5.509 1.139.873 1.85 1.059v1.04a4.981 4.981 0 0 1-2.723-1.594zm4.723 1.593v-1.04a4.005 4.005 0 0 0 1.85-1.059l.873.505a4.966 4.966 0 0 1-2.723 1.594zm-1-30.903c4.411 0 8-3.589 8-8s-3.589-8-8-8-8 3.589-8 8 3.589 8 8 8zm0-14c3.309 0 6 2.691 6 6s-2.691 6-6 6-6-2.691-6-6 2.692-6 6-6z"></path>
    <path d="M51.28 16.199a.997.997 0 0 0 1.414 0l4-4a.999.999 0 1 0-1.414-1.414l-3.293 3.293-1.289-1.289a.999.999 0 1 0-1.414 1.414z"></path>
  </symbol>
  <symbol xmlns="http://www.w3.org/2000/svg" viewBox="0 0 512 512" id="user">
    <path d="M437.02 330.98c-27.883-27.882-61.071-48.523-97.281-61.018C378.521 243.251 404 198.548 404 148 404 66.393 337.607 0 256 0S108 66.393 108 148c0 50.548 25.479 95.251 64.262 121.962-36.21 12.495-69.398 33.136-97.281 61.018C26.629 379.333 0 443.62 0 512h40c0-119.103 96.897-216 216-216s216 96.897 216 216h40c0-68.38-26.629-132.667-74.98-181.02zM256 256c-59.551 0-108-48.448-108-108S196.449 40 256 40s108 48.448 108 108-48.449 108-108 108z"></path>
  </symbol>
</svg>